<svg width="366" height="93" viewBox="0 0 366 93" fill="none" xmlns="http://www.w3.org/2000/svg">
<path d="M98.9778 69.1775L89.2155 54.1424C87.8348 54.2288 86.7788 54.2721 86.0477 54.2721H73.6353V69.1582H69.1777V23.0591H86.0477C91.6961 23.0591 96.0595 24.3892 99.1379 27.0495C102.216 29.7098 103.757 33.4794 103.76 38.3582C103.76 42.1998 102.855 45.3884 101.044 47.9238C99.2336 50.4593 96.6479 52.2392 93.2871 53.2636L104.151 69.1582L98.9778 69.1775ZM86.0477 50.1856C90.3593 50.1856 93.6777 49.1851 96.003 47.1843C98.3283 45.1835 99.4925 42.2927 99.4956 38.5119C99.4956 34.8208 98.3314 32.0068 96.003 30.07C93.6746 28.1332 90.3562 27.1728 86.0477 27.1888H73.6353V50.2048L86.0477 50.1856Z" fill="white"></path>
<path d="M151.968 26.1322C155.504 28.1161 158.463 30.9855 160.554 34.4586C162.662 37.9341 163.762 41.928 163.729 45.9929C163.756 50.0764 162.658 54.0884 160.554 57.5885C158.432 61.1233 155.431 64.0484 151.843 66.0792C148.255 68.1101 144.203 69.1775 140.08 69.1775C135.957 69.1775 131.905 68.1101 128.317 66.0792C124.729 64.0484 121.728 61.1233 119.606 57.5885C117.507 54.0875 116.415 50.0749 116.45 45.9929C116.415 41.9277 117.515 37.9332 119.625 34.4586C121.715 30.9845 124.674 28.1149 128.211 26.1322C131.849 24.1166 135.94 23.0591 140.099 23.0591C144.258 23.0591 148.349 24.1166 151.987 26.1322H151.968ZM130.555 29.5995C127.663 31.2381 125.251 33.6064 123.559 36.4682C121.837 39.3447 120.941 42.6403 120.969 45.9929C120.947 49.364 121.842 52.6778 123.559 55.5789C125.24 58.4733 127.653 60.8746 130.555 62.5419C133.464 64.242 136.777 65.1269 140.146 65.1035C143.483 65.1236 146.764 64.2383 149.638 62.5419C152.525 60.8667 154.926 58.4665 156.601 55.5789C158.318 52.6778 159.213 49.364 159.191 45.9929C159.219 42.6403 158.323 39.3447 156.601 36.4682C154.915 33.613 152.516 31.2458 149.638 29.5995C146.757 27.924 143.479 27.0509 140.146 27.0709C136.781 27.0476 133.471 27.9204 130.555 29.5995V29.5995Z" fill="white"></path>
<path d="M207.006 28.5054C204.285 27.3699 201.34 26.8733 198.398 27.0534C195.455 27.2335 192.593 28.0855 190.029 29.5445C187.161 31.1983 184.78 33.5819 183.125 36.4546C181.453 39.3581 180.573 42.652 180.573 46.005C180.573 49.358 181.453 52.6518 183.125 55.5553C184.797 58.4211 187.183 60.8022 190.048 62.4654C192.959 64.1737 196.278 65.0584 199.65 65.0254C202.159 65.0238 204.642 64.5279 206.959 63.5659C209.289 62.6092 211.425 61.2361 213.265 59.5134L215.997 62.4324C213.741 64.5196 211.134 66.1892 208.297 67.3634C205.494 68.5553 202.482 69.172 199.438 69.1771C195.348 69.199 191.323 68.1445 187.765 66.119C184.208 64.0935 181.242 61.1677 179.165 57.6336C177.081 54.1237 175.996 50.1085 176.028 46.0239C175.993 41.9537 177.091 37.9545 179.198 34.4756C181.32 30.9686 184.312 28.0734 187.883 26.0725C191.453 24.0717 195.48 23.0336 199.57 23.0596C205.644 23.0772 211.486 25.3932 215.931 29.5445L213.265 32.676C211.461 30.9014 209.337 29.4862 207.006 28.5054V28.5054Z" fill="white"></path>
<path d="M264.805 69.1775H259.275L242.024 46.9662L232.783 57.0276V69.1775H228.295V23.0591H232.783V51.2762L258.024 23.0591H263.488L245.199 43.4268L264.805 69.1775Z" fill="white"></path>
<path d="M277.104 23.0591H310.145V30.7639H285.738V42.1627H307.641V49.8723H285.738V61.4679H310.924V69.1775H277.104V23.0591Z" fill="white"></path>
<path d="M354.369 25.9934C357.889 27.8712 360.818 30.7112 362.825 34.191C364.889 37.813 365.944 41.9341 365.879 46.1156C365.946 50.2911 364.878 54.4047 362.792 58.0066C360.744 61.488 357.784 64.3269 354.241 66.209C350.41 68.2313 346.14 69.2504 341.821 69.1734H323.223V23.0626H342.162C346.409 22.9914 350.605 23.999 354.369 25.9934V25.9934ZM349.852 59.4553C352.051 58.182 353.855 56.3112 355.06 54.0542C356.312 51.6067 356.961 48.8881 356.949 46.1313C356.938 43.3745 356.267 40.6616 354.994 38.225C353.748 35.928 351.889 34.033 349.629 32.7568C347.292 31.454 344.659 30.7925 341.992 30.8381H331.935V61.4027H342.352C344.978 61.4365 347.565 60.7645 349.852 59.4553V59.4553Z" fill="white"></path>
<path d="M44.4054 61.33C44.3408 61.3001 41.5787 60.0282 37.464 57.6367C39.21 53.5111 40.426 49.1731 41.0821 44.7304C43.6624 27.3597 37.1009 10.6691 23.059 0C9.02036 10.6691 2.45884 27.3597 5.0281 44.7301C5.68745 49.1728 6.90702 53.5102 8.65656 57.6348C4.54157 60.0272 1.77826 61.2992 1.71516 61.3294L0 62.1056V92.2367L3.98247 90.5781C4.68734 90.2837 13.9021 86.3281 23.0477 77.8252L23.0587 77.8354L23.0698 77.8248C32.2151 86.3278 41.4269 90.2834 42.1356 90.5781L46.1184 92.2367V62.1056L44.4054 61.33ZM23.0846 7.86233C30.5879 14.6125 38.0225 26.0093 35.3813 43.8542C34.839 47.5328 33.8547 51.1294 32.4504 54.5631C31.7005 56.391 30.8413 58.1702 29.8777 59.8909C27.955 63.2906 25.6727 66.4656 23.0717 69.3592C20.4728 66.4646 18.1917 63.2897 16.2691 59.8909C15.3053 58.1703 14.4461 56.391 13.6963 54.5631C12.2919 51.1295 11.3076 47.5328 10.7655 43.8542C8.1246 26.0093 15.5588 14.6135 23.0846 7.86233ZM5.77683 65.8793C7.0389 65.2496 8.93201 64.2625 11.2353 62.9439L11.2438 62.9597C13.3959 66.784 15.9621 70.3506 18.8942 73.5925C14.8937 77.2661 10.4924 80.4597 5.77683 83.1105V65.8793ZM40.3444 83.1105C35.6281 80.4602 31.2261 77.2671 27.2248 73.5938C30.1574 70.3514 32.724 66.7843 34.8765 62.9594C34.8793 62.9546 34.8818 62.9494 34.8847 62.9443C37.2006 64.2622 39.0792 65.2496 40.3431 65.8793L40.3444 83.1105Z" fill="#622FEE"></path>
<path d="M28.1062 46.8717C28.1062 40.2797 23.0579 34.9287 23.0579 34.9287C23.0579 34.9287 18.0156 40.2716 18.0156 46.8717C18.0156 53.4717 23.0598 58.8146 23.0598 58.8146C23.0598 58.8146 28.1081 53.4611 28.1081 46.8717" fill="#622FEE"></path>
</svg>