<svg width="170" height="130" viewBox="0 0 170 130" fill="none" xmlns="http://www.w3.org/2000/svg">
<path d="M16.171 129.302L10.8735 121.143C10.1242 121.19 9.55122 121.213 9.15445 121.213H2.41888V129.291H0V104.275H9.15445C12.2196 104.275 14.5874 104.997 16.2578 106.441C17.9283 107.884 18.7644 109.93 18.7661 112.577C18.7661 114.662 18.2749 116.392 17.2923 117.768C16.3098 119.144 14.9066 120.11 13.0829 120.666L18.9781 129.291L16.171 129.302ZM9.15445 118.996C11.4942 118.996 13.2949 118.453 14.5567 117.367C15.8185 116.281 16.4503 114.712 16.452 112.661C16.452 110.658 15.8202 109.131 14.5567 108.08C13.2932 107.029 11.4925 106.508 9.15445 106.516H2.41888V119.006L9.15445 118.996Z" fill="black"></path>
<path d="M46.5937 105.943C48.5123 107.02 50.1179 108.577 51.2528 110.461C52.3969 112.347 52.9935 114.515 52.9757 116.72C52.9904 118.936 52.3943 121.113 51.2528 123.013C50.1013 124.931 48.4728 126.518 46.5259 127.62C44.5789 128.722 42.3798 129.302 40.1426 129.302C37.9054 129.302 35.7063 128.722 33.7593 127.62C31.8124 126.518 30.1839 124.931 29.0324 123.013C27.8932 121.113 27.3005 118.936 27.3198 116.72C27.3008 114.514 27.8974 112.347 29.0426 110.461C30.1769 108.576 31.7827 107.019 33.7018 105.943C35.676 104.849 37.8959 104.275 40.1529 104.275C42.4098 104.275 44.6297 104.849 46.6039 105.943H46.5937ZM34.9741 107.825C33.4045 108.714 32.0955 109.999 31.1776 111.552C30.243 113.113 29.7567 114.901 29.7722 116.72C29.7599 118.55 30.2458 120.348 31.1776 121.922C32.0898 123.493 33.3991 124.796 34.9741 125.701C36.5524 126.623 38.3503 127.103 40.1785 127.091C41.9894 127.102 43.7695 126.621 45.3291 125.701C46.8961 124.792 48.1985 123.489 49.1076 121.922C50.0395 120.348 50.5253 118.55 50.513 116.72C50.5285 114.901 50.0422 113.113 49.1076 111.552C48.193 110.002 46.8908 108.718 45.3291 107.825C43.7656 106.915 41.9871 106.442 40.1785 106.452C38.3526 106.44 36.5563 106.913 34.9741 107.825V107.825Z" fill="black"></path>
<path d="M78.1291 107.231C76.6522 106.615 75.0543 106.345 73.4577 106.443C71.861 106.541 70.3077 107.003 68.9164 107.795C67.3603 108.692 66.0679 109.986 65.17 111.544C64.2627 113.12 63.785 114.907 63.785 116.727C63.785 118.546 64.2627 120.334 65.17 121.909C66.0773 123.465 67.3718 124.757 68.9266 125.659C70.5064 126.586 72.3072 127.066 74.1374 127.048C75.4984 127.048 76.846 126.778 78.1036 126.256C79.3676 125.737 80.527 124.992 81.5254 124.057L83.0076 125.641C81.7836 126.774 80.3689 127.68 78.8294 128.317C77.3086 128.964 75.6742 129.299 74.0224 129.301C71.8026 129.313 69.6185 128.741 67.688 127.642C65.7576 126.543 64.1483 124.955 63.0208 123.037C61.8902 121.133 61.3016 118.954 61.3188 116.737C61.2998 114.529 61.8954 112.358 63.0387 110.471C64.1902 108.567 65.814 106.996 67.7516 105.911C69.6892 104.825 71.8744 104.262 74.0939 104.276C77.3896 104.285 80.5602 105.542 82.9719 107.795L81.5254 109.494C80.5462 108.531 79.3938 107.763 78.1291 107.231V107.231Z" fill="black"></path>
<path d="M111.163 129.302H108.162L98.8008 117.249L93.786 122.708V129.302H91.3506V104.275H93.786V119.587L107.483 104.275H110.448L100.524 115.328L111.163 129.302Z" fill="black"></path>
<path d="M119.505 104.275H137.435V108.456H124.19V114.642H136.076V118.826H124.19V125.118H137.857V129.302H119.505V104.275Z" fill="black"></path>
<path d="M163.101 105.868C165.011 106.887 166.601 108.428 167.69 110.316C168.809 112.282 169.382 114.518 169.347 116.787C169.383 119.053 168.803 121.285 167.672 123.24C166.56 125.129 164.954 126.669 163.031 127.691C160.952 128.788 158.636 129.341 156.292 129.299H146.199V104.277H156.477C158.781 104.239 161.058 104.785 163.101 105.868V105.868ZM160.649 124.026C161.843 123.335 162.822 122.32 163.476 121.095C164.155 119.767 164.507 118.292 164.501 116.796C164.495 115.3 164.131 113.827 163.44 112.505C162.764 111.259 161.755 110.23 160.529 109.538C159.26 108.831 157.832 108.472 156.384 108.497H150.927V125.083H156.58C158.004 125.101 159.409 124.736 160.649 124.026V124.026Z" fill="black"></path>
<path d="M104.117 55.4678C104.059 55.4408 101.56 54.2905 97.8391 52.1276C99.4181 48.3963 100.518 44.473 101.111 40.4549C103.445 24.7445 97.5106 9.64931 84.811 0C72.1142 9.64931 66.1799 24.7445 68.5035 40.4546C69.0999 44.4727 70.2029 48.3955 71.7852 52.1258C68.0635 54.2896 65.5643 55.4399 65.5073 55.4673L63.9561 56.1693V83.4204L67.5579 81.9203C68.1954 81.654 76.5293 78.0765 84.8007 70.3863L84.8107 70.3956L84.8207 70.386C93.0919 78.0762 101.423 81.6537 102.064 81.9203L105.666 83.4204V56.1693L104.117 55.4678ZM84.8341 7.11081C91.6203 13.2158 98.3442 23.5232 95.9554 39.6624C95.465 42.9894 94.5748 46.2423 93.3047 49.3478C92.6265 51.0009 91.8494 52.6101 90.9779 54.1663C89.239 57.241 87.1748 60.1125 84.8224 62.7295C82.4719 60.1116 80.4089 57.2402 78.6701 54.1663C77.7984 52.6101 77.0213 51.0009 76.3432 49.3478C75.0731 46.2423 74.1828 42.9894 73.6925 39.6624C71.3041 23.5232 78.0277 13.2166 84.8341 7.11081ZM69.1807 59.5823C70.3221 59.0128 72.0343 58.12 74.1174 56.9275L74.1251 56.9417C76.0716 60.4005 78.3924 63.6262 81.0443 66.5582C77.4261 69.8807 73.4456 72.769 69.1807 75.1665V59.5823ZM100.444 75.1665C96.1787 72.7695 92.1974 69.8816 88.5786 66.5594C91.2309 63.6269 93.5521 60.4008 95.4989 56.9415C95.5014 56.9371 95.5037 56.9324 95.5063 56.9278C97.6008 58.1197 99.2999 59.0128 100.443 59.5823L100.444 75.1665Z" fill="#622FEE"></path>
<path d="M89.3761 42.3912C89.3761 36.4293 84.8103 31.5898 84.8103 31.5898C84.8103 31.5898 80.25 36.4221 80.25 42.3912C80.25 48.3604 84.812 53.1926 84.812 53.1926C84.812 53.1926 89.3778 48.3508 89.3778 42.3912" fill="#622FEE"></path>
</svg>